With: Tommy Lee Jones and Samuel L. Jackson

Gesitueerd in een New York's huurappartement richt het verhaal zich op twee zeer verschillende mannen. De zwaar religieuze zwarte ex-gevangene (Samuel L. Jackson) dwarsboomt de zelfmoordpoging van een asociale blanke professor (Tommy Lee Jones) die zichzelf voor de aanstormende metrotrein 'The Sunset Limited' probeerde te gooien. Terwijl de ene man contact probeert te maken op een rationeel, spiritueel en emotioneel niveau, blijft de andere standvastig in zijn zuurverdiende wanhoop steken. Opgesloten in een filosofisch debat verdedigen beide mannen hun persoonlijke credo en proberen ze de ander daarvan te overtuigen.

Two men in an apartment with their opposing beliefs.

------------------ Dutch Friends ------------------
You can find my Friends at: http://www.Film-Test.nl 
------ They got my dutchs subs ---- and more ------

General:

Complete name                    : The Sunset Limited\The Sunset Limited.avi
Format                           : AVI
Format/Info                      : Audio Video Interleave
File size                        : 1.12 GiB
Duration                         : 1h 30mn
Overall bit rate                 : 1 763 Kbps

Video:

Format                           : MPEG-4 Visual
Format profile                   : Simple@L3
Format settings, BVOP            : No
Format settings, QPel            : No
Format settings, GMC             : No warppoints
Format settings, Matrix          : Default (H.263)
Codec ID                         : XVID
Codec ID/Hint                    : XviD
Duration                         : 1h 30mn
Bit rate                         : 1 305 Kbps
Width                            : 652 pixels
Height                           : 352 pixels
Display aspect ratio             : 1.852
Frame rate                       : 23.976 fps
Color space                      : YUV
Chroma subsampling               : 4:2:0
Bit depth                        : 8 bits
Scan type                        : Progressive
Bits/(Pixel*Frame)               : 0.237
Stream size                      : 848 MiB (74%)
Writing library                  : XviD 1.1.2 (UTC 2006-11-01)

Audio:

Format                           : AC-3
Format/Info                      : Audio Coding 3
Mode extension                   : CM (complete main)
Codec ID                         : 2000
Duration                         : 1h 30mn
Bit rate mode                    : Constant
Bit rate                         : 448 Kbps
Channel(s)                       : 6 channels
Channel positions                : Front: L C R, Side: L R, LFE
Sampling rate                    : 48.0 KHz
Bit depth                        : 16 bits
Stream size                      : 291 MiB (25%)
Alignment                        : Aligned on interleaves
Interleave, duration             : 32 ms (0.77 video frame)
Interleave, preload duration     : 32 ms

